# xmcd
#
# Track frame offsets:
# 150
# 14370
# 28487
# 42212
#
# Disc length: 685 seconds
#
#
# Revision: 5
# Processed by: cddbd v1.5.2PL0 Copyright (c) Steve Scherf et al.
# Submitted via: FreeRIP 2.40 
#
DISCID=2d02ab04
DTITLE=Offspring - Pretty fly (For a white guy)
DYEAR=1998
DGENRE=Rock
TTITLE0=Pretty fly  (album version)
TTITLE1=Pretty fly  (the geek mix)
TTITLE2=Pretty fly (the baka boyz remix)
TTITLE3=All i want (live)
EXTD=
EXTT0=
EXTT1=
EXTT2=
EXTT3=
PLAYORDER=
